<svg xmlns="http://www.w3.org/2000/svg" viewBox="0 0 16 15.95">
  <defs>
    <style>
      .cls-1 {
        fill: #fff;
      }
    </style>
  </defs>
  <path id="ic_linkedin" class="cls-1" d="M14.582,0H1.418A1.422,1.422,0,0,0,0,1.418V14.533A1.422,1.422,0,0,0,1.418,15.95H14.582A1.422,1.422,0,0,0,16,14.533V1.418A1.422,1.422,0,0,0,14.582,0ZM5.054,12.966c0,.206-.057.291-.276.284-.518-.014-1.042-.021-1.56,0-.291.014-.326-.106-.319-.354.014-1.063.007-2.127.007-3.183S2.914,7.585,2.9,6.529c0-.227.057-.3.3-.3.518.014,1.035.014,1.56,0,.22-.007.3.05.3.291C5.047,8.67,5.054,10.818,5.054,12.966ZM3.991,5.3A1.266,1.266,0,0,1,2.722,4.012,1.225,1.225,0,0,1,3.913,2.743,1.24,1.24,0,0,1,5.246,3.984,1.279,1.279,0,0,1,3.991,5.3ZM12.9,13.249c-.51-.014-1.014-.014-1.524,0-.248.007-.319-.064-.319-.319.007-1.255,0-2.5-.007-3.757a1.15,1.15,0,0,0-.907-1.156c-.773-.064-1.5.149-1.538,1.226-.05,1.191-.043,2.389-.028,3.58.007.34-.085.454-.432.425a9,9,0,0,0-1.311,0c-.3.021-.369-.1-.369-.383.014-1.049.007-2.105.007-3.155s.007-2.105-.007-3.155c-.007-.269.071-.347.34-.333.475.021.943.021,1.418,0,.284-.014.383.071.347.354-.014.106-.057.255.078.319s.191-.1.269-.17a2.555,2.555,0,0,1,2.8-.51,2.263,2.263,0,0,1,1.467,2.29c.028,1.475.021,2.956.035,4.431C13.235,13.2,13.143,13.257,12.9,13.249Z"/>
</svg>
